<mxfile host="app.diagrams.net" agent="Mozilla/5.0 (Windows NT 10.0; Win64; x64) AppleWebKit/537.36 (KHTML, like Gecko) Chrome/140.0.0.0 Safari/537.36" version="28.2.5" pages="2">
  <diagram name="Page-1" id="WATJgWUv7Gbb9eMfGjs_">
    <mxGraphModel dx="703" dy="794" grid="1" gridSize="10" guides="1" tooltips="1" connect="1" arrows="1" fold="1" page="1" pageScale="1" pageWidth="827" pageHeight="1169" math="0" shadow="0">
      <root>
        <mxCell id="0" />
        <mxCell id="1" parent="0" />
        <mxCell id="48UQXFP3GpHkb4F-Kwx0-1" value="Title" style="text;strokeColor=none;fillColor=none;html=1;fontSize=24;fontStyle=1;verticalAlign=middle;align=center;" vertex="1" parent="1">
          <mxGeometry x="314" y="40" width="100" height="40" as="geometry" />
        </mxCell>
        <mxCell id="48UQXFP3GpHkb4F-Kwx0-5" value="" style="shape=image;html=1;verticalAlign=top;verticalLabelPosition=bottom;labelBackgroundColor=#ffffff;imageAspect=0;aspect=fixed;image=https://icons.diagrams.net/icon-cache1/Web_UI-2597/Menu-2-1472.svg" vertex="1" parent="1">
          <mxGeometry x="450" y="25" width="55" height="55" as="geometry" />
        </mxCell>
        <mxCell id="48UQXFP3GpHkb4F-Kwx0-6" value="" style="image;aspect=fixed;html=1;points=[];align=center;fontSize=12;image=img/lib/azure2/general/Image.svg;" vertex="1" parent="1">
          <mxGeometry x="196.26999999999998" y="80" width="290" height="199.38" as="geometry" />
        </mxCell>
        <mxCell id="48UQXFP3GpHkb4F-Kwx0-7" value="" style="image;aspect=fixed;html=1;points=[];align=center;fontSize=12;image=img/lib/azure2/general/Image.svg;" vertex="1" parent="1">
          <mxGeometry x="270" y="290" width="159.99" height="110" as="geometry" />
        </mxCell>
        <mxCell id="48UQXFP3GpHkb4F-Kwx0-8" value="Sub-Heading" style="text;strokeColor=none;fillColor=none;html=1;fontSize=24;fontStyle=1;verticalAlign=middle;align=center;" vertex="1" parent="1">
          <mxGeometry x="312" y="630" width="100" height="40" as="geometry" />
        </mxCell>
        <mxCell id="48UQXFP3GpHkb4F-Kwx0-9" value="" style="image;aspect=fixed;html=1;points=[];align=center;fontSize=12;image=img/lib/azure2/general/Image.svg;" vertex="1" parent="1">
          <mxGeometry x="332.91" y="690" width="58.18" height="40" as="geometry" />
        </mxCell>
        <mxCell id="48UQXFP3GpHkb4F-Kwx0-10" value="" style="image;aspect=fixed;html=1;points=[];align=center;fontSize=12;image=img/lib/azure2/general/Image.svg;" vertex="1" parent="1">
          <mxGeometry x="332.91" y="750" width="58.18" height="40" as="geometry" />
        </mxCell>
        <mxCell id="48UQXFP3GpHkb4F-Kwx0-11" value="" style="image;aspect=fixed;html=1;points=[];align=center;fontSize=12;image=img/lib/azure2/general/Image.svg;" vertex="1" parent="1">
          <mxGeometry x="336.72" y="980" width="58.19" height="40" as="geometry" />
        </mxCell>
        <mxCell id="48UQXFP3GpHkb4F-Kwx0-12" value="" style="image;aspect=fixed;html=1;points=[];align=center;fontSize=12;image=img/lib/azure2/general/Image.svg;" vertex="1" parent="1">
          <mxGeometry x="336.73" y="1030" width="58.18" height="40" as="geometry" />
        </mxCell>
        <mxCell id="48UQXFP3GpHkb4F-Kwx0-13" value="" style="image;aspect=fixed;html=1;points=[];align=center;fontSize=12;image=img/lib/azure2/general/Image.svg;" vertex="1" parent="1">
          <mxGeometry x="335.82" y="930" width="58.19" height="40" as="geometry" />
        </mxCell>
        <mxCell id="48UQXFP3GpHkb4F-Kwx0-14" value="" style="image;aspect=fixed;html=1;points=[];align=center;fontSize=12;image=img/lib/azure2/general/Image.svg;" vertex="1" parent="1">
          <mxGeometry x="335.82" y="880" width="58.18" height="40" as="geometry" />
        </mxCell>
        <mxCell id="48UQXFP3GpHkb4F-Kwx0-15" value="" style="image;aspect=fixed;html=1;points=[];align=center;fontSize=12;image=img/lib/azure2/general/Image.svg;" vertex="1" parent="1">
          <mxGeometry x="332.90999999999997" y="810" width="58.18" height="40" as="geometry" />
        </mxCell>
        <mxCell id="48UQXFP3GpHkb4F-Kwx0-16" value="Small text" style="text;strokeColor=none;fillColor=none;html=1;align=center;verticalAlign=middle;whiteSpace=wrap;rounded=0;fontSize=16;" vertex="1" parent="1">
          <mxGeometry x="312" y="410" width="100" height="30" as="geometry" />
        </mxCell>
        <mxCell id="48UQXFP3GpHkb4F-Kwx0-17" value="Small text" style="text;strokeColor=none;fillColor=none;html=1;align=center;verticalAlign=middle;whiteSpace=wrap;rounded=0;fontSize=16;" vertex="1" parent="1">
          <mxGeometry x="314.90999999999997" y="570" width="100" height="30" as="geometry" />
        </mxCell>
        <mxCell id="48UQXFP3GpHkb4F-Kwx0-19" value="Slogan" style="text;strokeColor=none;fillColor=none;html=1;align=center;verticalAlign=middle;whiteSpace=wrap;rounded=0;fontSize=16;" vertex="1" parent="1">
          <mxGeometry x="160" y="40" width="100" height="30" as="geometry" />
        </mxCell>
        <mxCell id="48UQXFP3GpHkb4F-Kwx0-20" value="" style="image;aspect=fixed;html=1;points=[];align=center;fontSize=12;image=img/lib/azure2/general/Image.svg;" vertex="1" parent="1">
          <mxGeometry x="270" y="440" width="174.54" height="120" as="geometry" />
        </mxCell>
        <mxCell id="48UQXFP3GpHkb4F-Kwx0-21" value="Call to Action" style="text;strokeColor=none;fillColor=none;html=1;align=center;verticalAlign=middle;whiteSpace=wrap;rounded=0;fontSize=16;" vertex="1" parent="1">
          <mxGeometry x="274.90999999999997" y="1090" width="180" height="30" as="geometry" />
        </mxCell>
        <mxCell id="48UQXFP3GpHkb4F-Kwx0-22" value="Footer" style="text;strokeColor=none;fillColor=none;html=1;align=center;verticalAlign=middle;whiteSpace=wrap;rounded=0;fontSize=16;" vertex="1" parent="1">
          <mxGeometry x="334.91" y="1120" width="60" height="30" as="geometry" />
        </mxCell>
      </root>
    </mxGraphModel>
  </diagram>
  <diagram id="B2uwjNMlpwDI6SpEJTq-" name="Page-2">
    <mxGraphModel dx="703" dy="1194" grid="0" gridSize="10" guides="1" tooltips="1" connect="1" arrows="1" fold="1" page="0" pageScale="1" pageWidth="827" pageHeight="1169" math="0" shadow="0">
      <root>
        <mxCell id="0" />
        <mxCell id="1" parent="0" />
        <mxCell id="hScKFNs3Rxfc0dEtmS5Q-1" value="" style="image;aspect=fixed;html=1;points=[];align=center;fontSize=12;image=img/lib/azure2/general/Image.svg;" vertex="1" parent="1">
          <mxGeometry x="25" y="-85" width="344.72" height="237" as="geometry" />
        </mxCell>
        <mxCell id="hScKFNs3Rxfc0dEtmS5Q-2" value="TITLE" style="text;strokeColor=none;fillColor=none;html=1;align=center;verticalAlign=middle;whiteSpace=wrap;rounded=0;fontSize=16;" vertex="1" parent="1">
          <mxGeometry x="63" y="-157.5" width="196" height="61" as="geometry" />
        </mxCell>
        <mxCell id="hScKFNs3Rxfc0dEtmS5Q-3" value="SLOGAN" style="text;strokeColor=none;fillColor=none;html=1;align=center;verticalAlign=middle;whiteSpace=wrap;rounded=0;fontSize=16;" vertex="1" parent="1">
          <mxGeometry x="48" y="-142" width="60" height="30" as="geometry" />
        </mxCell>
        <mxCell id="hScKFNs3Rxfc0dEtmS5Q-5" value="NAV LINKS" style="text;strokeColor=none;fillColor=none;html=1;align=center;verticalAlign=middle;whiteSpace=wrap;rounded=0;fontSize=16;" vertex="1" parent="1">
          <mxGeometry x="197" y="-142" width="184" height="30" as="geometry" />
        </mxCell>
        <mxCell id="hScKFNs3Rxfc0dEtmS5Q-6" value="" style="image;aspect=fixed;html=1;points=[];align=center;fontSize=12;image=img/lib/azure2/general/Image.svg;" vertex="1" parent="1">
          <mxGeometry x="23" y="173" width="177.45" height="122" as="geometry" />
        </mxCell>
        <mxCell id="hScKFNs3Rxfc0dEtmS5Q-7" value="" style="image;aspect=fixed;html=1;points=[];align=center;fontSize=12;image=img/lib/azure2/general/Image.svg;" vertex="1" parent="1">
          <mxGeometry x="210" y="175" width="183" height="125.82" as="geometry" />
        </mxCell>
        <mxCell id="hScKFNs3Rxfc0dEtmS5Q-8" value="" style="image;aspect=fixed;html=1;points=[];align=center;fontSize=12;image=img/lib/azure2/general/Image.svg;" vertex="1" parent="1">
          <mxGeometry x="53" y="438" width="63.73" height="43.82" as="geometry" />
        </mxCell>
        <mxCell id="hScKFNs3Rxfc0dEtmS5Q-9" value="" style="image;aspect=fixed;html=1;points=[];align=center;fontSize=12;image=img/lib/azure2/general/Image.svg;" vertex="1" parent="1">
          <mxGeometry x="324" y="441" width="63.73" height="43.82" as="geometry" />
        </mxCell>
        <mxCell id="hScKFNs3Rxfc0dEtmS5Q-10" value="" style="image;aspect=fixed;html=1;points=[];align=center;fontSize=12;image=img/lib/azure2/general/Image.svg;" vertex="1" parent="1">
          <mxGeometry x="286" y="503" width="63.73" height="43.82" as="geometry" />
        </mxCell>
        <mxCell id="hScKFNs3Rxfc0dEtmS5Q-11" value="" style="image;aspect=fixed;html=1;points=[];align=center;fontSize=12;image=img/lib/azure2/general/Image.svg;" vertex="1" parent="1">
          <mxGeometry x="240" y="441" width="63.73" height="43.82" as="geometry" />
        </mxCell>
        <mxCell id="hScKFNs3Rxfc0dEtmS5Q-12" value="" style="image;aspect=fixed;html=1;points=[];align=center;fontSize=12;image=img/lib/azure2/general/Image.svg;" vertex="1" parent="1">
          <mxGeometry x="195.27" y="505" width="63.73" height="43.82" as="geometry" />
        </mxCell>
        <mxCell id="hScKFNs3Rxfc0dEtmS5Q-13" value="" style="image;aspect=fixed;html=1;points=[];align=center;fontSize=12;image=img/lib/azure2/general/Image.svg;" vertex="1" parent="1">
          <mxGeometry x="140" y="438" width="63.73" height="43.82" as="geometry" />
        </mxCell>
        <mxCell id="hScKFNs3Rxfc0dEtmS5Q-14" value="" style="image;aspect=fixed;html=1;points=[];align=center;fontSize=12;image=img/lib/azure2/general/Image.svg;" vertex="1" parent="1">
          <mxGeometry x="87" y="505" width="63.73" height="43.82" as="geometry" />
        </mxCell>
        <mxCell id="hScKFNs3Rxfc0dEtmS5Q-15" value="Small text" style="text;strokeColor=none;fillColor=none;html=1;align=center;verticalAlign=middle;whiteSpace=wrap;rounded=0;fontSize=16;" vertex="1" parent="1">
          <mxGeometry x="72" y="307" width="117" height="33" as="geometry" />
        </mxCell>
        <mxCell id="hScKFNs3Rxfc0dEtmS5Q-17" value="Small text" style="text;strokeColor=none;fillColor=none;html=1;align=center;verticalAlign=middle;whiteSpace=wrap;rounded=0;fontSize=16;" vertex="1" parent="1">
          <mxGeometry x="259" y="310" width="97" height="30" as="geometry" />
        </mxCell>
        <mxCell id="hScKFNs3Rxfc0dEtmS5Q-18" value="Call to Action" style="text;strokeColor=none;fillColor=none;html=1;align=center;verticalAlign=middle;whiteSpace=wrap;rounded=0;fontSize=16;" vertex="1" parent="1">
          <mxGeometry x="152.5" y="603" width="125" height="30" as="geometry" />
        </mxCell>
        <mxCell id="hScKFNs3Rxfc0dEtmS5Q-19" value="Footer" style="text;strokeColor=none;fillColor=none;html=1;align=center;verticalAlign=middle;whiteSpace=wrap;rounded=0;fontSize=16;" vertex="1" parent="1">
          <mxGeometry x="185" y="695" width="60" height="30" as="geometry" />
        </mxCell>
      </root>
    </mxGraphModel>
  </diagram>
</mxfile>
